<svg xmlns="http://www.w3.org/2000/svg" width="22" height="22"><g fill="none"><circle cx="11" cy="11" r="11" fill="#F0F0F0"/><path d="M2.25 4.275a10.94 10.94 0 00-1.893 3.82H6.07l-3.82-3.82zm19.312 3.82a10.941 10.941 0 00-1.892-3.82l-3.82 3.82h5.712zM.357 13.824a10.942 10.942 0 001.892 3.82l3.82-3.82H.358zM17.645 2.25a10.941 10.941 0 00-3.82-1.893V6.07l3.82-3.82zM4.275 19.67a10.941 10.941 0 003.82 1.892V15.85l-3.82 3.82zM8.095.357a10.942 10.942 0 00-3.82 1.892l3.82 3.82V.358zm5.729 21.205a10.942 10.942 0 003.82-1.892l-3.82-3.82v5.712zm2.026-7.738l3.82 3.82a10.941 10.941 0 001.892-3.82H15.85z" fill="#0052B4"/><g fill="#D80027"><path d="M21.907 9.565h-9.472V.093a11.11 11.11 0 00-2.87 0v9.472H.093a11.11 11.11 0 000 2.87h9.472v9.472a11.109 11.109 0 002.87 0v-9.472h9.472a11.109 11.109 0 000-2.87z"/><path d="M13.87 13.87l4.908 4.908c.226-.225.441-.461.647-.706l-4.203-4.202H13.87zm-5.74 0l-4.908 4.908c.225.226.461.441.706.647l4.202-4.203V13.87zm0-5.74L3.222 3.222c-.226.225-.441.461-.647.706L6.778 8.13H8.13zm5.74 0l4.908-4.908a11.014 11.014 0 00-.706-.647L13.87 6.778V8.13z"/></g></g></svg>