<?xml version="1.0" encoding="utf-8"?><svg viewBox="0 0 512 512"
	xmlns="http://www.w3.org/2000/svg" xmlns:xlink="http://www.w3.org/1999/xlink">
	<style>
		:root>svg {
			display: none
		}

		:root>svg:target {
			display: block
		}
	</style><svg viewBox="0 0 15 13" id="01" xmlns="http://www.w3.org/2000/svg">
		<path fill="#FFF" d="M6 12.75v-4.5h3v4.5h3.75v-6H15L7.5 0 0 6.75h2.25v6z" />
		</svg><svg viewBox="0 0 20 15" id="02" xmlns="http://www.w3.org/2000/svg">
		<path
			d="M10.35.024l.05 1.242h-.826L9.625.024H7.612l-4.045 14.97h5.44l.052-1.242h1.857l.05 1.242h5.442L12.362.024h-2.013zm-.853 3.101h.98l.143 3.454H9.355l.142-3.454zm-.361 8.767l.142-3.453h1.418l.143 3.453H9.136zM13.681.024h-.685l5.126 14.97h1.852L13.681.024zm-7.388 0L0 14.994h1.852L6.978.024h-.685z"
			fill="#fff" /></svg><svg viewBox="0 0 16 16" id="03"
		xmlns="http://www.w3.org/2000/svg">
		<path fill="#FFF"
			d="M15.429 4H12.57V.571A.571.571 0 0012 0H.571A.571.571 0 000 .571v13.143A2.286 2.286 0 002.286 16h11.428A2.286 2.286 0 0016 13.714V4.571A.571.571 0 0015.429 4zM4.57 2.857H8A.571.571 0 118 4H4.571a.571.571 0 110-1.143zm5.143 10.857H2.857a.571.571 0 110-1.143h6.857a.571.571 0 110 1.143zm0-2.285H2.857a.571.571 0 110-1.143h6.857a.571.571 0 110 1.143zm0-2.286H2.857a.571.571 0 110-1.143h6.857a.571.571 0 110 1.143zm0-2.286H2.857a.571.571 0 110-1.143h6.857a.571.571 0 110 1.143zm5.143 6.857a1.143 1.143 0 01-2.286 0V5.143h2.286v8.571z" />
		</svg><svg viewBox="0 0 15 15" id="04" xmlns="http://www.w3.org/2000/svg">
		<g fill="#FFF">
			<path
				d="M2.3 7.2c.35 0 .666-.146.9-.38l1.283.666c-.007.055-.016.108-.016.164 0 .744.583 1.35 1.3 1.35.716 0 1.3-.606 1.3-1.35 0-.208-.05-.402-.13-.578l1.74-1.807c.169.084.356.135.556.135.717 0 1.3-.606 1.3-1.35 0-.14-.026-.273-.065-.4l1.512-1.177c.207.143.454.227.72.227.717 0 1.3-.606 1.3-1.35C14 .606 13.417 0 12.7 0c-.717 0-1.3.606-1.3 1.35 0 .14.027.273.065.4L9.953 2.927a1.258 1.258 0 00-.72-.227c-.716 0-1.3.606-1.3 1.35 0 .208.05.402.13.578l-1.74 1.807a1.245 1.245 0 00-.556-.135c-.35 0-.666.146-.9.38l-1.283-.666c.007-.055.016-.108.016-.164 0-.744-.583-1.35-1.3-1.35-.717 0-1.3.606-1.3 1.35 0 .744.583 1.35 1.3 1.35z" />
			<path
				d="M14.56 14.088h-.468V4.456a.448.448 0 00-.44-.456h-1.757a.448.448 0 00-.44.456v9.632h-.879V7.191a.448.448 0 00-.44-.456H8.38a.448.448 0 00-.44.456v6.897h-.878v-3.251a.448.448 0 00-.44-.456H4.863a.448.448 0 00-.44.456v3.251h-.878V9.014a.448.448 0 00-.44-.456H1.348a.448.448 0 00-.44.456v5.074H.44a.448.448 0 00-.439.456c0 .252.197.456.44.456h14.12c.243 0 .44-.204.44-.456a.448.448 0 00-.44-.456z" />
		</g>
	</svg><svg viewBox="0 0 17 14" id="05" xmlns="http://www.w3.org/2000/svg">
		<path
			d="M12 12v2H0v-2s0-4 6-4 6 4 6 4M9 3a3 3 0 10-6 0 3 3 0 006 0m3 5a5.6 5.6 0 011.8 3.94v2h3v-2S16.8 8.49 12 8m-1.11-8a2.91 2.91 0 00-.89.14 5 5 0 010 5.72c.288.093.588.14.89.14a3 3 0 000-6"
			fill="#FFF" /></svg><svg viewBox="0 0 15 15" id="06"
		xmlns="http://www.w3.org/2000/svg">
		<path fill="#FFF"
			d="M7.297 10.125a2.625 2.625 0 110-5.25 2.625 2.625 0 010 5.25m5.572-1.897c.03-.24.053-.48.053-.728s-.023-.495-.053-.75l1.583-1.223a.378.378 0 00.09-.48l-1.5-2.595a.37.37 0 00-.458-.164l-1.867.75a5.437 5.437 0 00-1.268-.735L9.172.315A.38.38 0 008.797 0h-3a.38.38 0 00-.375.315l-.278 1.988a5.437 5.437 0 00-1.267.735l-1.868-.75a.369.369 0 00-.457.164l-1.5 2.596a.37.37 0 00.09.48L1.724 6.75c-.03.255-.052.502-.052.75s.022.488.052.728L.142 9.473a.37.37 0 00-.09.48l1.5 2.595c.09.164.292.224.457.164l1.868-.757c.39.3.795.555 1.267.742l.278 1.988a.38.38 0 00.375.315h3a.38.38 0 00.375-.315l.277-1.988a5.461 5.461 0 001.268-.742l1.867.757c.165.06.368 0 .458-.164l1.5-2.596a.378.378 0 00-.09-.48l-1.583-1.244z" />
		</svg><svg viewBox="0 0 512 512" id="facebook"
		xmlns="http://www.w3.org/2000/svg">
		<path
			d="M483.738 0h-455.5C12.641.008-.004 12.66 0 28.262v455.5C.008 499.359 12.66 512.004 28.262 512h455.476c15.606.004 28.258-12.645 28.262-28.25V28.238C511.992 12.641 499.34-.004 483.738 0zm0 0"
			fill="#4267b2" />
		<path
			d="M353.5 512V314h66.75l10-77.5H353.5v-49.36c0-22.386 6.215-37.64 38.316-37.64H432.5V80.371c-7.078-.941-31.363-3.047-59.621-3.047-59 0-99.379 36-99.379 102.14V236.5H207V314h66.5v198zm0 0"
			fill="#fff" /></svg><svg viewBox="0 0 512 512" id="instagram"
		xmlns="http://www.w3.org/2000/svg">
		<path
			d="M305 256c0 27.063-21.938 49-49 49s-49-21.938-49-49 21.938-49 49-49 49 21.938 49 49zm0 0" />
		<path
			d="M370.594 169.305a45.546 45.546 0 00-10.996-16.903 45.514 45.514 0 00-16.903-10.996c-5.18-2.011-12.96-4.406-27.293-5.058-15.504-.707-20.152-.86-59.402-.86-39.254 0-43.902.149-59.402.856-14.332.656-22.118 3.05-27.293 5.062a45.483 45.483 0 00-16.903 10.996 45.572 45.572 0 00-11 16.903c-2.011 5.18-4.406 12.965-5.058 27.297-.707 15.5-.86 20.148-.86 59.402 0 39.25.153 43.898.86 59.402.652 14.332 3.047 22.114 5.058 27.293a45.563 45.563 0 0010.996 16.903 45.514 45.514 0 0016.903 10.996c5.18 2.015 12.965 4.41 27.297 5.062 15.5.707 20.144.856 59.398.856 39.258 0 43.906-.149 59.402-.856 14.332-.652 22.118-3.047 27.297-5.062a48.68 48.68 0 0027.899-27.899c2.011-5.18 4.406-12.96 5.062-27.293.707-15.504.856-20.152.856-59.402 0-39.254-.149-43.902-.856-59.402-.652-14.332-3.047-22.118-5.062-27.297zM256 331.485c-41.691 0-75.488-33.794-75.488-75.485s33.797-75.484 75.488-75.484c41.688 0 75.484 33.793 75.484 75.484S297.688 331.484 256 331.484zm78.469-136.313c-9.742 0-17.64-7.899-17.64-17.64s7.898-17.641 17.64-17.641 17.64 7.898 17.64 17.64c-.004 9.742-7.898 17.64-17.64 17.64zm0 0" />
		<path
			d="M256 0C114.637 0 0 114.637 0 256s114.637 256 256 256 256-114.637 256-256S397.363 0 256 0zm146.113 316.605c-.71 15.649-3.199 26.333-6.832 35.684a75.164 75.164 0 01-42.992 42.992c-9.348 3.633-20.035 6.117-35.68 6.832-15.675.715-20.683.887-60.605.887-39.926 0-44.93-.172-60.61-.887-15.644-.715-26.331-3.199-35.68-6.832a72.018 72.018 0 01-26.038-16.957 72.044 72.044 0 01-16.953-26.035c-3.633-9.348-6.121-20.035-6.832-35.68-.723-15.68-.891-20.687-.891-60.609s.168-44.93.887-60.605c.71-15.649 3.195-26.332 6.828-35.684a72.013 72.013 0 0116.96-26.035 72.003 72.003 0 0126.036-16.957c9.352-3.633 20.035-6.117 35.684-6.832C211.07 109.172 216.078 109 256 109s44.93.172 60.605.89c15.649.712 26.332 3.196 35.684 6.825a72.061 72.061 0 0126.04 16.96 72.027 72.027 0 0116.952 26.036c3.637 9.352 6.121 20.035 6.836 35.684.715 15.675.883 20.683.883 60.605s-.168 44.93-.887 60.605zm0 0" />
		</svg><svg viewBox="0 0 512 512" id="twitter" xmlns="http://www.w3.org/2000/svg">
		<path
			d="M256 0C114.637 0 0 114.637 0 256s114.637 256 256 256 256-114.637 256-256S397.363 0 256 0zm116.887 199.602c.113 2.52.168 5.05.168 7.593 0 77.645-59.102 167.18-167.184 167.184h.004-.004c-33.184 0-64.062-9.727-90.066-26.395 4.597.543 9.277.813 14.015.813 27.532 0 52.868-9.39 72.98-25.152-25.722-.477-47.41-17.465-54.894-40.813a58.481 58.481 0 0011.043 1.063c5.363 0 10.559-.723 15.496-2.07-26.886-5.384-47.14-29.145-47.14-57.598 0-.266 0-.504.007-.75a58.354 58.354 0 0026.614 7.347c-15.778-10.527-26.149-28.523-26.149-48.91a58.597 58.597 0 017.957-29.535c28.977 35.555 72.282 58.937 121.118 61.394a58.708 58.708 0 01-1.528-13.398c0-32.437 26.317-58.754 58.766-58.754 16.902 0 32.168 7.145 42.89 18.567a117.855 117.855 0 0037.313-14.262c-4.395 13.715-13.707 25.222-25.84 32.5 11.887-1.422 23.215-4.574 33.742-9.254a119.412 119.412 0 01-29.308 30.43zm0 0" />
		</svg><svg viewBox="0 0 22 22" id="united-kingdom"
		xmlns="http://www.w3.org/2000/svg">
		<g fill="none">
			<circle cx="11" cy="11" r="11" fill="#F0F0F0" />
			<path
				d="M2.25 4.275a10.94 10.94 0 00-1.893 3.82H6.07l-3.82-3.82zm19.312 3.82a10.941 10.941 0 00-1.892-3.82l-3.82 3.82h5.712zM.357 13.824a10.942 10.942 0 001.892 3.82l3.82-3.82H.358zM17.645 2.25a10.941 10.941 0 00-3.82-1.893V6.07l3.82-3.82zM4.275 19.67a10.941 10.941 0 003.82 1.892V15.85l-3.82 3.82zM8.095.357a10.942 10.942 0 00-3.82 1.892l3.82 3.82V.358zm5.729 21.205a10.942 10.942 0 003.82-1.892l-3.82-3.82v5.712zm2.026-7.738l3.82 3.82a10.941 10.941 0 001.892-3.82H15.85z"
				fill="#0052B4" />
			<g fill="#D80027">
				<path
					d="M21.907 9.565h-9.472V.093a11.11 11.11 0 00-2.87 0v9.472H.093a11.11 11.11 0 000 2.87h9.472v9.472a11.109 11.109 0 002.87 0v-9.472h9.472a11.109 11.109 0 000-2.87z" />
				<path
					d="M13.87 13.87l4.908 4.908c.226-.225.441-.461.647-.706l-4.203-4.202H13.87zm-5.74 0l-4.908 4.908c.225.226.461.441.706.647l4.202-4.203V13.87zm0-5.74L3.222 3.222c-.226.225-.441.461-.647.706L6.778 8.13H8.13zm5.74 0l4.908-4.908a11.014 11.014 0 00-.706-.647L13.87 6.778V8.13z" />
			</g>
		</g>
	</svg>
</svg>
