<?xml version="1.0" encoding="utf-8"?><svg xmlns="http://www.w3.org/2000/svg"
	xmlns:xlink="http://www.w3.org/1999/xlink">
	<symbol viewBox="0 0 512 512" id="facebook" xmlns="http://www.w3.org/2000/svg">
		<path
			d="M483.738 0h-455.5C12.641.008-.004 12.66 0 28.262v455.5C.008 499.359 12.66 512.004 28.262 512h455.476c15.606.004 28.258-12.645 28.262-28.25V28.238C511.992 12.641 499.34-.004 483.738 0zm0 0" />
		<path
			d="M353.5 512V314h66.75l10-77.5H353.5v-49.36c0-22.386 6.215-37.64 38.316-37.64H432.5V80.371c-7.078-.941-31.363-3.047-59.621-3.047-59 0-99.379 36-99.379 102.14V236.5H207V314h66.5v198zm0 0" />
	</symbol>
	<symbol viewBox="0 0 512 512" id="instagram" xmlns="http://www.w3.org/2000/svg">
		<path
			d="M305 256c0 27.063-21.938 49-49 49s-49-21.938-49-49 21.938-49 49-49 49 21.938 49 49zm0 0" />
		<path
			d="M370.594 169.305a45.546 45.546 0 00-10.996-16.903 45.514 45.514 0 00-16.903-10.996c-5.18-2.011-12.96-4.406-27.293-5.058-15.504-.707-20.152-.86-59.402-.86-39.254 0-43.902.149-59.402.856-14.332.656-22.118 3.05-27.293 5.062a45.483 45.483 0 00-16.903 10.996 45.572 45.572 0 00-11 16.903c-2.011 5.18-4.406 12.965-5.058 27.297-.707 15.5-.86 20.148-.86 59.402 0 39.25.153 43.898.86 59.402.652 14.332 3.047 22.114 5.058 27.293a45.563 45.563 0 0010.996 16.903 45.514 45.514 0 0016.903 10.996c5.18 2.015 12.965 4.41 27.297 5.062 15.5.707 20.144.856 59.398.856 39.258 0 43.906-.149 59.402-.856 14.332-.652 22.118-3.047 27.297-5.062a48.68 48.68 0 0027.899-27.899c2.011-5.18 4.406-12.96 5.062-27.293.707-15.504.856-20.152.856-59.402 0-39.254-.149-43.902-.856-59.402-.652-14.332-3.047-22.118-5.062-27.297zM256 331.485c-41.691 0-75.488-33.794-75.488-75.485s33.797-75.484 75.488-75.484c41.688 0 75.484 33.793 75.484 75.484S297.688 331.484 256 331.484zm78.469-136.313c-9.742 0-17.64-7.899-17.64-17.64s7.898-17.641 17.64-17.641 17.64 7.898 17.64 17.64c-.004 9.742-7.898 17.64-17.64 17.64zm0 0" />
		<path
			d="M256 0C114.637 0 0 114.637 0 256s114.637 256 256 256 256-114.637 256-256S397.363 0 256 0zm146.113 316.605c-.71 15.649-3.199 26.333-6.832 35.684a75.164 75.164 0 01-42.992 42.992c-9.348 3.633-20.035 6.117-35.68 6.832-15.675.715-20.683.887-60.605.887-39.926 0-44.93-.172-60.61-.887-15.644-.715-26.331-3.199-35.68-6.832a72.018 72.018 0 01-26.038-16.957 72.044 72.044 0 01-16.953-26.035c-3.633-9.348-6.121-20.035-6.832-35.68-.723-15.68-.891-20.687-.891-60.609s.168-44.93.887-60.605c.71-15.649 3.195-26.332 6.828-35.684a72.013 72.013 0 0116.96-26.035 72.003 72.003 0 0126.036-16.957c9.352-3.633 20.035-6.117 35.684-6.832C211.07 109.172 216.078 109 256 109s44.93.172 60.605.89c15.649.712 26.332 3.196 35.684 6.825a72.061 72.061 0 0126.04 16.96 72.027 72.027 0 0116.952 26.036c3.637 9.352 6.121 20.035 6.836 35.684.715 15.675.883 20.683.883 60.605s-.168 44.93-.887 60.605zm0 0" />
	</symbol>
	<symbol viewBox="0 0 512 512" id="twitter" xmlns="http://www.w3.org/2000/svg">
		<path
			d="M256 0C114.637 0 0 114.637 0 256s114.637 256 256 256 256-114.637 256-256S397.363 0 256 0zm116.887 199.602c.113 2.52.168 5.05.168 7.593 0 77.645-59.102 167.18-167.184 167.184h.004-.004c-33.184 0-64.062-9.727-90.066-26.395 4.597.543 9.277.813 14.015.813 27.532 0 52.868-9.39 72.98-25.152-25.722-.477-47.41-17.465-54.894-40.813a58.481 58.481 0 0011.043 1.063 58.8 58.8 0 0015.496-2.07c-26.886-5.384-47.14-29.145-47.14-57.598 0-.266 0-.504.007-.75a58.354 58.354 0 0026.614 7.347c-15.778-10.527-26.149-28.523-26.149-48.91a58.597 58.597 0 017.957-29.535c28.977 35.555 72.282 58.937 121.118 61.394a58.708 58.708 0 01-1.528-13.398c0-32.437 26.317-58.754 58.766-58.754 16.902 0 32.168 7.145 42.89 18.567a117.855 117.855 0 0037.313-14.262c-4.395 13.715-13.707 25.222-25.84 32.5 11.887-1.422 23.215-4.574 33.742-9.254a119.412 119.412 0 01-29.308 30.43zm0 0" />
	</symbol>
</svg>
